Normalized EMG Linear Envelopes
nRows=116
nColumns=4

endheader
time	 med_gas_r	  soleus_r	 tib_ant_r	
3.72154	  0.024320	  0.026573	  0.014507	
3.7931	  0.023564	  0.025567	  0.013598	
3.86467	  0.023098	  0.024923	  0.013045	
3.93624	  0.022617	  0.024866	  0.012944	
4.00781	  0.021986	  0.025135	  0.013164	
4.07938	  0.021654	  0.025179	  0.013565	
4.15094	  0.021840	  0.024783	  0.014052	
4.22251	  0.022131	  0.024160	  0.014406	
4.29408	  0.022253	  0.023610	  0.014338	
4.36565	  0.022759	  0.023356	  0.013875	
4.43722	  0.024270	  0.023482	  0.013398	
4.50878	  0.026918	  0.023776	  0.013143	
4.58035	  0.031463	  0.023989	  0.012975	
4.65192	  0.039210	  0.024617	  0.012726	
4.72349	  0.051163	  0.026944	  0.012483	
4.79506	  0.068851	  0.031748	  0.012478	
4.86662	  0.092435	  0.037989	  0.012847	
4.93819	  0.118460	  0.043567	  0.013547	
5.00976	  0.143344	  0.047450	  0.014386	
5.08133	  0.162912	  0.049417	  0.015109	
5.1529	  0.168450	  0.048743	  0.015519	
5.22446	  0.155353	  0.045615	  0.015530	
5.29603	  0.131703	  0.041579	  0.015131	
5.3676	  0.109058	  0.037458	  0.014468	
5.43917	  0.093752	  0.033713	  0.013845	
5.51074	  0.087806	  0.031563	  0.013485	
5.5823	  0.088187	  0.031667	  0.013498	
5.65387	  0.091002	  0.033683	  0.014004	
5.72544	  0.098045	  0.036942	  0.014920	
5.79701	  0.108785	  0.039827	  0.015760	
5.86858	  0.115267	  0.040456	  0.015938	
5.94014	  0.116233	  0.039201	  0.015344	
6.01171	  0.119525	  0.038124	  0.014450	
6.08328	  0.124841	  0.037989	  0.013773	
6.15485	  0.123867	  0.038122	  0.013532	
6.22642	  0.116601	  0.038075	  0.013819	
6.29798	  0.111635	  0.038206	  0.014597	
6.36955	  0.113682	  0.039448	  0.015575	
6.44112	  0.120104	  0.042198	  0.016355	
6.51269	  0.127254	  0.045431	  0.016708	
6.58426	  0.134891	  0.047894	  0.016782	
6.65582	  0.143702	  0.049387	  0.016970	
6.72739	  0.150763	  0.049747	  0.017419	
6.79896	  0.151940	  0.048344	  0.017806	
6.87053	  0.147669	  0.045851	  0.017693	
6.9421	  0.141262	  0.044117	  0.016985	
7.01366	  0.135950	  0.043927	  0.016044	
7.08523	  0.135508	  0.044712	  0.015433	
7.1568	  0.140952	  0.045697	  0.015440	
7.22837	  0.147983	  0.046487	  0.015875	
7.29994	  0.152215	  0.047056	  0.016305	
7.3715	  0.154343	  0.047428	  0.016406	
7.44307	  0.156835	  0.047579	  0.016203	
7.51464	  0.159466	  0.047471	  0.015975	
7.58621	  0.160734	  0.047106	  0.015876	
7.65778	  0.157487	  0.046551	  0.015832	
7.72934	  0.146810	  0.045959	  0.015755	
7.80091	  0.133295	  0.045724	  0.015651	
7.87248	  0.124654	  0.045938	  0.015570	
7.94405	  0.123000	  0.046030	  0.015578	
8.01562	  0.126614	  0.045637	  0.015679	
8.08718	  0.131440	  0.044772	  0.015770	
8.15875	  0.133590	  0.043500	  0.015745	
8.23032	  0.133869	  0.042322	  0.015609	
8.30189	  0.133749	  0.041736	  0.015403	
8.37346	  0.132996	  0.041432	  0.015119	
8.44502	  0.132674	  0.040903	  0.014708	
8.51659	  0.131700	  0.040125	  0.014183	
8.58816	  0.126863	  0.039228	  0.013686	
8.65973	  0.120916	  0.038514	  0.013466	
8.7313	  0.119833	  0.038770	  0.013661	
8.80286	  0.124293	  0.040539	  0.014115	
8.87443	  0.132562	  0.043240	  0.014611	
8.946	  0.142837	  0.045513	  0.015150	
9.01757	  0.149988	  0.046555	  0.015684	
9.08914	  0.150526	  0.047006	  0.015894	
9.1607	  0.148186	  0.047831	  0.015630	
9.23227	  0.148781	  0.048912	  0.015221	
9.30384	  0.153952	  0.049980	  0.015116	
9.37541	  0.161610	  0.051417	  0.015506	
9.44698	  0.169705	  0.053249	  0.016303	
9.51854	  0.176482	  0.054852	  0.017182	
9.59011	  0.177924	  0.055324	  0.017672	
9.66168	  0.171374	  0.053701	  0.017548	
9.73325	  0.160816	  0.050343	  0.017152	
9.80482	  0.153380	  0.047681	  0.017058	
9.87638	  0.153020	  0.048102	  0.017284	
9.94795	  0.158995	  0.051488	  0.017177	
10.0195	  0.167636	  0.055423	  0.016341	
10.0911	  0.174980	  0.057734	  0.015212	
10.1627	  0.178826	  0.058302	  0.014515	
10.2342	  0.179749	  0.058146	  0.014596	
10.3058	  0.181358	  0.057732	  0.015223	
10.3774	  0.188111	  0.056931	  0.015819	
10.4489	  0.200269	  0.056002	  0.016077	
10.5205	  0.210301	  0.055145	  0.016170	
10.5921	  0.206415	  0.053490	  0.016159	
10.6636	  0.184062	  0.050301	  0.015442	
10.7352	  0.153414	  0.045962	  0.013084	
10.8068	  0.129208	  0.041206	  0.008891	
10.8783	  0.113479	  0.037046	  0.004934	
10.9499	  0.096598	  0.034488	  0.007238	
11.0215	  0.075680	  0.033870	  0.026395	
11.093	  0.059076	  0.035319	  0.071895	
11.1646	  0.050893	  0.038273	  0.136599	
11.2362	  0.046431	  0.040828	  0.192013	
11.3077	  0.042188	  0.041252	  0.215329	
11.3793	  0.038064	  0.039511	  0.212167	
11.4509	  0.033983	  0.036812	  0.199278	
11.5224	  0.030127	  0.034192	  0.183260	
11.594	  0.027166	  0.031917	  0.165036	
11.6656	  0.025378	  0.030107	  0.147972	
11.7372	  0.024503	  0.029122	  0.135558	
11.8087	  0.024439	  0.029273	  0.126513	
11.8803	  0.025789	  0.030655	  0.115571	
11.9519	  0.028623	  0.032922	  0.100400	
